<svg id="Layer_1" data-name="Layer 1" xmlns="http://www.w3.org/2000/svg" viewBox="0 0 80 40"><defs><style>.cls-1,.cls-5{fill:#fff;}.cls-2{fill:#038141;}.cls-3{fill:#e63e11;}.cls-4{fill:#ee8100;}.cls-5{fill-opacity:0.45;}.cls-6{fill:#fecb02;}.cls-7{fill:#85bb2f;}.cls-8{fill:#0039ff;fill-opacity:0.63;stroke:#fff;stroke-linecap:round;stroke-linejoin:round;stroke-width:3.5px;}</style></defs><title>NUTRISCORE-C</title><g id="_02_Picto_05_Badge_NUTRISCORE_C" data-name=" 02 Picto 05 Badge NUTRISCORE C"><g id="Group"><path id="rect5161" class="cls-1" d="M7.37,0H72.54A7.32,7.32,0,0,1,80,7.17V32.75A7.32,7.32,0,0,1,72.62,40H7.37A7.23,7.23,0,0,1,0,32.92V7.25A7.31,7.31,0,0,1,7.37,0Z"/><polygon id="rect5239" class="cls-2" points="11.89 9.25 26.64 9.25 26.64 32.25 11.89 32.25 11.89 9.25"/><polygon id="rect5241" class="cls-3" points="55.01 9.25 69.85 9.25 69.85 32.25 55.01 32.25 55.01 9.25"/><path id="rect5243" class="cls-2" d="M8.85,9.25h3.73a5.44,5.44,0,0,1,5.55,5.33V26.92a5.44,5.44,0,0,1-5.55,5.33H8.85A5.44,5.44,0,0,1,3.3,26.92h0V14.58A5.44,5.44,0,0,1,8.85,9.25Z"/><polygon id="rect5245" class="cls-4" points="47.81 9.25 62.64 9.25 62.64 32.25 47.81 32.25 47.81 9.25"/><path id="path5531" class="cls-5" d="M51.36,25.75V15.33h4.08a6.3,6.3,0,0,1,2.35.42,6.21,6.21,0,0,1,1.73,1.17,5,5,0,0,1,1,1.58,8,8,0,0,1,.35,2,5.76,5.76,0,0,1-1.48,3.83,5.76,5.76,0,0,1-1.73,1.09,6.66,6.66,0,0,1-2.26.33Zm7-5.17a5.31,5.31,0,0,0-.18-1.25,3.84,3.84,0,0,0-.61-1,2.26,2.26,0,0,0-.86-.66l-1.22-.17H53.88v6.17h1.56a3,3,0,0,0,1.22-.25,1.5,1.5,0,0,0,.86-.59,3.68,3.68,0,0,0,.61-1A6.61,6.61,0,0,0,58.31,20.58Z"/><polygon id="rect5251" class="cls-6" points="32.19 9.25 47.81 9.25 47.81 32.25 32.19 32.25 32.19 9.25"/><polygon id="rect5253" class="cls-7" points="32.88 9.25 18.05 9.25 18.05 32.25 32.88 32.25 32.88 9.25 32.88 9.25"/><path id="path5526" class="cls-5" d="M35.05,20.83A4.62,4.62,0,0,1,35.4,19a5.7,5.7,0,0,1,1-1.67,6.59,6.59,0,0,1,1.74-1.25,6.36,6.36,0,0,1,2.25-.41,5.58,5.58,0,0,1,2.69.66A3.91,3.91,0,0,1,44.77,18l-1.91,1.25a1.83,1.83,0,0,0-.43-.67l-.61-.41-.69-.25h-.7a3.67,3.67,0,0,0-1.3.33,2.43,2.43,0,0,0-.87.75,3.35,3.35,0,0,0-.52.92,6.49,6.49,0,0,0-.17,1.16,5.08,5.08,0,0,0,.17,1.17,2.87,2.87,0,0,0,.61,1,2.43,2.43,0,0,0,.87.75,2.79,2.79,0,0,0,1.21.25h.7l.69-.25.61-.42a2.88,2.88,0,0,0,.43-.66l2,1.16a2.59,2.59,0,0,1-.7,1,3.16,3.16,0,0,1-1.12.75l-1.31.5-1.38.17a4.84,4.84,0,0,1-2.17-.67,3.88,3.88,0,0,1-1.65-1.16,5.53,5.53,0,0,1-1.13-1.75A6.46,6.46,0,0,1,35.05,20.83Z"/><path id="path5523" class="cls-5" d="M28.46,23.08a2.11,2.11,0,0,1-.35,1.17,1.79,1.79,0,0,1-.78.83,2.54,2.54,0,0,1-1.21.5l-1.39.17H19.44V15.33h6.07a2.49,2.49,0,0,1,1,.25l.78.59.43.83A2.07,2.07,0,0,1,28,18a2.78,2.78,0,0,1-.43,1.42,2.56,2.56,0,0,1-1.13,1,3,3,0,0,1,1.48.91A3,3,0,0,1,28.46,23.08Zm-2.6-.41a1.27,1.27,0,0,0-.26-.84,1,1,0,0,0-.79-.41H22v2.33h2.78a1,1,0,0,0,1.13-1.08ZM22,17.42v2.16h2.52a1,1,0,0,0,.69-.25,1.16,1.16,0,0,0,0-1.66.76.76,0,0,0-.61-.25Z"/><path id="rect5263" class="cls-8" d="M39.13,6.25h1.65a7.83,7.83,0,0,1,8,7.67h0v13.5a7.82,7.82,0,0,1-8,7.66H39.13a7.82,7.82,0,0,1-8-7.66h0V13.92a7.83,7.83,0,0,1,8-7.67Z"/><path id="path5519" class="cls-5" d="M8.76,15.33H11l4,10.42h-2.6l-.87-2.33H8.16l-.79,2.41H4.77C4.77,25.75,8.76,15.33,8.76,15.33Zm2.43,6.5-1.3-3.75-1.3,3.75Z"/><path id="rect5269" class="cls-3" d="M68.2,9.25h3.64a5.36,5.36,0,0,1,5.55,5.17.43.43,0,0,1,0,.16V26.92a5.44,5.44,0,0,1-5.55,5.33H68.2a5.45,5.45,0,0,1-5.56-5.33h0V14.58A5.36,5.36,0,0,1,68,9.25Z"/><polygon id="path5515" class="cls-5" points="73.06 23.67 73.06 25.83 65.42 25.83 65.42 15.33 72.88 15.33 72.88 17.5 67.85 17.5 67.85 19.5 72.19 19.5 72.19 21.5 67.85 21.5 67.85 23.67 73.06 23.67 73.06 23.67"/><path id="rect5275" class="cls-6" d="M39.13,6.25h1.65a7.83,7.83,0,0,1,8,7.67h0v13.5a7.82,7.82,0,0,1-8,7.66H39.13a7.82,7.82,0,0,1-8-7.66h0V13.92a7.83,7.83,0,0,1,8-7.67Z"/><path id="path5511" class="cls-1" d="M33.84,20.83a5.69,5.69,0,0,1,.43-2.41,6.06,6.06,0,0,1,1.3-2.25,5.41,5.41,0,0,1,2.09-1.5A5.78,5.78,0,0,1,40.43,14a6.24,6.24,0,0,1,3.13.83A5.12,5.12,0,0,1,45.64,17L43.3,18.75a1.66,1.66,0,0,0-.53-.92l-.69-.58-.87-.33h-.78a3.13,3.13,0,0,0-1.56.41,3.67,3.67,0,0,0-1,.92,2.75,2.75,0,0,0-.61,1.33,4.55,4.55,0,0,0-.26,1.5,4.27,4.27,0,0,0,.26,1.5,4.9,4.9,0,0,0,.7,1.34,2.38,2.38,0,0,0,1.12.83,2.41,2.41,0,0,0,1.39.33h.87l.78-.33.78-.58.52-.84,2.43,1.5a3.21,3.21,0,0,1-.87,1.34,5.42,5.42,0,0,1-1.3,1.08L42,27.83a5.89,5.89,0,0,1-4.25-.33,7.84,7.84,0,0,1-2.08-1.67,9.35,9.35,0,0,1-1.3-2.25A5.9,5.9,0,0,1,33.84,20.83Z"/></g></g></svg>