<svg id="Layer_1" data-name="Layer 1" xmlns="http://www.w3.org/2000/svg" viewBox="0 0 80 40"><defs><style>.cls-1,.cls-4{fill:#fff;}.cls-2{fill:#e63e11;}.cls-3{fill:#038141;}.cls-4{fill-opacity:0.45;}.cls-5{fill:#ee8100;}.cls-6{fill:#fecb02;}.cls-7{fill:#85bb2f;}</style></defs><title>NUTRISCORE-A</title><g id="_02_Picto_05_Badge_NUTRISCORE_A" data-name=" 02 Picto 05 Badge NUTRISCORE A"><g id="Group"><path id="rect5161" class="cls-1" d="M7.38,0H72.54A7.32,7.32,0,0,1,80,7.17V32.75A7.31,7.31,0,0,1,72.62,40H7.38A7.23,7.23,0,0,1,0,32.92V7.25A7.31,7.31,0,0,1,7.37,0Z"/><polygon id="rect5141" class="cls-2" points="55.88 8.42 70.72 8.42 70.72 31.42 55.88 31.42 55.88 8.42"/><polygon id="rect5143" class="cls-3" points="12.67 8.42 27.5 8.42 27.5 31.42 12.67 31.42 12.67 8.42"/><path id="rect5145" class="cls-3" d="M9.72,8.42h3.64a5.45,5.45,0,0,1,5.56,5.33V26.08a5.37,5.37,0,0,1-5.38,5.34H9.72a5.38,5.38,0,0,1-5.56-5.17V13.75A5.45,5.45,0,0,1,9.72,8.42Z"/><path id="path5635" class="cls-4" d="M9.63,14.58H11.8l4,10.42h-2.6l-.78-2.33H9L8.24,25H5.64ZM12,21l-1.21-3.67L9.46,21Z"/><path id="rect5151" class="cls-2" d="M69,8.42h3.73a5.44,5.44,0,0,1,5.55,5.33h0V26.08a5.44,5.44,0,0,1-5.55,5.34H69a5.44,5.44,0,0,1-5.55-5.34h0V13.75A5.44,5.44,0,0,1,69,8.42Z"/><path id="path5631" class="cls-4" d="M73.84,22.92V25H66.2V14.58h7.55v2.09h-5v2.08H73v1.92H68.72v2.25Z"/><polygon id="rect5209" class="cls-5" points="19.44 8.42 34.27 8.42 34.27 31.42 19.44 31.42 19.44 8.42"/><polygon id="rect5211" class="cls-5" points="48.59 8.42 63.43 8.42 63.43 31.42 48.59 31.42 48.59 8.42"/><path id="path5552" class="cls-4" d="M51.28,25V14.58h4.08A5.21,5.21,0,0,1,57.7,15a6.12,6.12,0,0,1,1.74,1.08,4.11,4.11,0,0,1,1,1.67,5.52,5.52,0,0,1,.43,2,5.79,5.79,0,0,1-.43,2.17,5.53,5.53,0,0,1-1,1.66,5.68,5.68,0,0,1-1.74,1,6.19,6.19,0,0,1-2.25.42Zm6.94-5.25a5.17,5.17,0,0,0-.17-1.17,2.87,2.87,0,0,0-.61-1,1.74,1.74,0,0,0-.87-.66,2.79,2.79,0,0,0-1.21-.25H53.8v6.25h1.56a3,3,0,0,0,1.21-.25,1.76,1.76,0,0,0,.87-.67,3.35,3.35,0,0,0,.61-.92A6.54,6.54,0,0,0,58.22,19.75Z"/><polygon id="rect5217" class="cls-6" points="32.97 8.42 48.68 8.42 48.68 31.42 32.97 31.42 32.97 8.42"/><polygon id="rect5219" class="cls-7" points="33.75 8.42 18.91 8.42 18.91 31.42 33.75 31.42 33.75 8.42 33.75 8.42"/><path id="path5547" class="cls-4" d="M35.83,19.67a5.12,5.12,0,0,1,.44-1.92,3.39,3.39,0,0,1,1-1.67A4.2,4.2,0,0,1,39,14.92a5.4,5.4,0,0,1,4.86.16,4.13,4.13,0,0,1,1.74,1.67L43.73,18a2.09,2.09,0,0,0-.52-.67l-.52-.41L42,16.67h-.7a2.9,2.9,0,0,0-1.3.25,1.87,1.87,0,0,0-.87.75,2.14,2.14,0,0,0-.52,1,4.35,4.35,0,0,0-.17,1.08A5.88,5.88,0,0,0,38.61,21a5.69,5.69,0,0,0,.61,1,3.37,3.37,0,0,0,.87.67,3,3,0,0,0,1.21.25H42l.69-.25.52-.42a1.16,1.16,0,0,0,.43-.67l2.09,1.17a3,3,0,0,1-.7,1,3.33,3.33,0,0,1-1.13.75,4,4,0,0,1-1.3.5l-1.39.17A6.2,6.2,0,0,1,39,24.75a6.48,6.48,0,0,1-1.73-1.25,5.85,5.85,0,0,1-1-1.83A6,6,0,0,1,35.83,19.67Z"/><path id="path5544" class="cls-4" d="M31.58,22.33a2.5,2.5,0,0,1-.26,1.17,2.29,2.29,0,0,1-.78.83,4.91,4.91,0,0,1-1.21.5L27.94,25H22.65V14.58h6.07a2.49,2.49,0,0,1,1,.25l.78.59a2.65,2.65,0,0,1,.44.83,2.32,2.32,0,0,1,.26,1,2.89,2.89,0,0,1-.44,1.42,2.56,2.56,0,0,1-1.13,1,2.41,2.41,0,0,1,1.48.91A3.74,3.74,0,0,1,31.58,22.33Zm-2.51-.5a1.46,1.46,0,0,0-.26-.83,1.34,1.34,0,0,0-.78-.33H25.16V23h2.78a1.6,1.6,0,0,0,.87-.33A1.49,1.49,0,0,0,29.07,21.83Zm-3.91-5.16v2.16h2.43a2.64,2.64,0,0,0,.78-.25,1.3,1.3,0,0,0,.26-.83,1,1,0,0,0-.26-.83,1,1,0,0,0-.69-.25Z"/><path id="rect5229" class="cls-1" d="M10.06,6.83a6.38,6.38,0,0,0-6.5,6.25V26.67a6.38,6.38,0,0,0,6.5,6.25h1.65a6.38,6.38,0,0,0,6.51-6.25h0V13.17A6.38,6.38,0,0,0,11.8,6.83H10.06Zm0-2.75h1.65a9.28,9.28,0,0,1,9.46,9.09h0v13.5a9.28,9.28,0,0,1-9.46,9.08H10.06A9.27,9.27,0,0,1,.61,26.67h0V13.17a9.27,9.27,0,0,1,9.45-9.09Z"/><path id="rect5231" class="cls-3" d="M10.06,5.5h1.65a7.83,7.83,0,0,1,8,7.67h0v13.5a7.83,7.83,0,0,1-8,7.66H10.06a7.83,7.83,0,0,1-8-7.66h0V13.17a7.83,7.83,0,0,1,8-7.67Z"/><path id="path5539" class="cls-1" d="M9.54,13.33h2.69l4.86,13.75H14l-1-3.08H8.85l-1,3.08h-3Zm2.87,8.42-1.48-4.83L9.37,21.75Z"/></g></g></svg>