<svg id="Layer_1" data-name="Layer 1" xmlns="http://www.w3.org/2000/svg" viewBox="0 0 80 40"><defs><style>.cls-1,.cls-5{fill:#fff;}.cls-2{fill:#038141;}.cls-3{fill:#e63e11;}.cls-4{fill:#ee8100;}.cls-5{fill-opacity:0.45;}.cls-6{fill:#fecb02;}.cls-7{fill:#85bb2f;}.cls-8{fill:#0039ff;fill-opacity:0.63;stroke:#fff;stroke-linecap:round;stroke-linejoin:round;stroke-width:3.5px;}</style></defs><title>NUTRISCORE-E</title><g id="_02_Picto_05_Badge_NUTRISCORE_E" data-name=" 02 Picto 05 Badge NUTRISCORE E"><g id="Group"><path id="rect5161" class="cls-1" d="M7.37,0H72.54A7.32,7.32,0,0,1,80,7.17V32.75A7.32,7.32,0,0,1,72.62,40H7.37A7.23,7.23,0,0,1,0,32.92V7.25A7.31,7.31,0,0,1,7.37,0Z"/><polygon id="rect5335" class="cls-2" points="11.89 9.25 26.64 9.25 26.64 32.25 11.89 32.25 11.89 9.25"/><polygon id="rect5337" class="cls-3" points="55.01 9.25 69.85 9.25 69.85 32.25 55.01 32.25 55.01 9.25"/><path id="rect5339" class="cls-2" d="M8.85,9.25h3.73a5.44,5.44,0,0,1,5.55,5.33V26.92a5.44,5.44,0,0,1-5.55,5.33H8.85A5.44,5.44,0,0,1,3.3,26.92h0V14.58A5.44,5.44,0,0,1,8.85,9.25Z"/><polygon id="rect5341" class="cls-4" points="47.81 9.25 62.64 9.25 62.64 32.25 47.81 32.25 47.81 9.25"/><path id="path5429" class="cls-5" d="M49,25.75V15.33h4a6.27,6.27,0,0,1,2.35.42,5.24,5.24,0,0,1,1.73,1.17,5,5,0,0,1,1,1.58,8,8,0,0,1,.35,2A5.76,5.76,0,0,1,57,24.33a5.76,5.76,0,0,1-1.73,1.09,6.62,6.62,0,0,1-2.26.33Zm6.86-5.17a5.31,5.31,0,0,0-.18-1.25,4.09,4.09,0,0,0-.6-1,3.51,3.51,0,0,0-.87-.66L53,17.5H51.45v6.17H53a3,3,0,0,0,1.22-.25,1.55,1.55,0,0,0,.87-.59,3.91,3.91,0,0,0,.6-1A6.61,6.61,0,0,0,55.88,20.58Z"/><polygon id="rect5347" class="cls-6" points="32.19 9.25 47.81 9.25 47.81 32.25 32.19 32.25 32.19 9.25"/><polygon id="rect5349" class="cls-7" points="32.88 9.25 18.05 9.25 18.05 32.25 32.88 32.25 32.88 9.25 32.88 9.25"/><path id="path5424" class="cls-5" d="M35.05,20.42a5,5,0,0,1,.35-1.92,6.76,6.76,0,0,1,1-1.67,6.23,6.23,0,0,1,1.74-1.16,4.83,4.83,0,0,1,2.25-.42,5.65,5.65,0,0,1,2.69.58,3.91,3.91,0,0,1,1.65,1.67l-1.91,1.33a1.27,1.27,0,0,0-.43-.66l-.61-.5-.69-.17h-.7a3.62,3.62,0,0,0-1.3.25,3.68,3.68,0,0,0-.87.75,6.33,6.33,0,0,0-.52,1,5.08,5.08,0,0,0-.17,1.17,5.08,5.08,0,0,0,.17,1.16,3.94,3.94,0,0,0,.61,1c.26.25.52.59.87.67a2.79,2.79,0,0,0,1.21.25h.7l.69-.25a1.75,1.75,0,0,0,.61-.5,1.83,1.83,0,0,0,.43-.67l2,1.17a2.88,2.88,0,0,1-.7,1.08L43,25.33l-1.31.42a4,4,0,0,1-1.38.17,6.16,6.16,0,0,1-2.17-.42,4.87,4.87,0,0,1-1.65-1.33,4.75,4.75,0,0,1-1.13-1.75A6,6,0,0,1,35.05,20.42Z"/><path id="path5421" class="cls-5" d="M30.8,23.08a1.6,1.6,0,0,1-.35,1.17,1.79,1.79,0,0,1-.78.83,2.54,2.54,0,0,1-1.21.5l-1.39.17H21.78V15.33h6.07a2.19,2.19,0,0,1,1,.25l.78.59.52.83a4.29,4.29,0,0,1,.18,1A2.65,2.65,0,0,1,30,19.42a3.67,3.67,0,0,1-1.21,1,2.94,2.94,0,0,1,1.47.91A3,3,0,0,1,30.8,23.08Zm-2.6-.41a1.22,1.22,0,0,0-.26-.84.89.89,0,0,0-.7-.41H24.29v2.33h2.78a1.2,1.2,0,0,0,.87-.33A1.16,1.16,0,0,0,28.2,22.67Zm-3.91-5.25v2.16h2.52a1,1,0,0,0,.69-.25,1.16,1.16,0,0,0,0-1.66.75.75,0,0,0-.6-.25Z"/><path id="rect5359" class="cls-8" d="M68.37,6.25H70a7.83,7.83,0,0,1,8,7.67v13.5a7.82,7.82,0,0,1-8,7.66H68.37a7.82,7.82,0,0,1-8-7.66V13.92A7.83,7.83,0,0,1,68.37,6.25Z"/><path id="path5417" class="cls-5" d="M8.76,15.33H11l4,10.42h-2.6l-.87-2.33H8.16l-.79,2.41H4.77C4.77,25.75,8.76,15.33,8.76,15.33Zm2.43,6.5-1.3-3.75-1.3,3.75Z"/><path id="rect5365" class="cls-3" d="M68.2,9.25h3.64a5.36,5.36,0,0,1,5.55,5.17.43.43,0,0,1,0,.16V26.92a5.44,5.44,0,0,1-5.55,5.33H68.2a5.45,5.45,0,0,1-5.56-5.33h0V14.58A5.36,5.36,0,0,1,68,9.25Z"/><polygon id="path5413" class="cls-5" points="73.06 23.67 73.06 25.83 65.42 25.83 65.42 15.33 72.88 15.33 72.88 17.5 67.85 17.5 67.85 19.5 72.19 19.5 72.19 21.5 67.85 21.5 67.85 23.67 73.06 23.67 73.06 23.67"/><path id="rect5371" class="cls-3" d="M68.37,6.25H70a7.83,7.83,0,0,1,8,7.67v13.5a7.82,7.82,0,0,1-8,7.66H68.37a7.82,7.82,0,0,1-8-7.66V13.92A7.83,7.83,0,0,1,68.37,6.25Z"/><polygon id="path5409" class="cls-1" points="72.97 25.08 72.97 27.83 63.77 27.83 63.77 14.08 72.8 14.08 72.8 16.92 66.81 16.92 66.81 19.58 72.02 19.58 72.02 22.08 66.81 22.08 66.81 25.08 72.97 25.08"/></g></g></svg>