<svg id="Layer_1" data-name="Layer 1" xmlns="http://www.w3.org/2000/svg" viewBox="0 0 80 40"><defs><style>.cls-1,.cls-5{fill:#fff;}.cls-2{fill:#038141;}.cls-3{fill:#e63e11;}.cls-4{fill:#ee8100;}.cls-5{fill-opacity:0.45;}.cls-6{fill:#fecb02;}.cls-7{fill:#85bb2f;}.cls-8{fill:#0039ff;fill-opacity:0.63;stroke:#fff;stroke-linecap:round;stroke-linejoin:round;stroke-width:3.5px;}</style></defs><title>NUTRISCORE-D</title><g id="_02_Picto_05_Badge_NUTRISCORE_D" data-name=" 02 Picto 05 Badge NUTRISCORE D"><g id="Group"><path id="rect5161" class="cls-1" d="M7.27,0H72.44A7.32,7.32,0,0,1,79.9,7.17V32.75A7.32,7.32,0,0,1,72.52,40H7.27A7.23,7.23,0,0,1-.1,32.92V7.25A7.31,7.31,0,0,1,7.27,0Z"/><polygon id="rect5287" class="cls-2" points="11.79 9.25 26.62 9.25 26.62 32.25 11.79 32.25 11.79 9.25"/><polygon id="rect5289" class="cls-3" points="54.91 9.25 69.75 9.25 69.75 32.25 54.91 32.25 54.91 9.25"/><path id="rect5291" class="cls-2" d="M8.75,9.25h3.73A5.44,5.44,0,0,1,18,14.58V26.92a5.44,5.44,0,0,1-5.55,5.33H8.75A5.44,5.44,0,0,1,3.2,26.92h0V14.58A5.44,5.44,0,0,1,8.75,9.25Z"/><polygon id="rect5293" class="cls-4" points="47.71 9.25 62.54 9.25 62.54 32.25 47.71 32.25 47.71 9.25"/><path id="path5480" class="cls-5" d="M50.4,26.17V15.67h4.07a6.92,6.92,0,0,1,2.35.41,6.18,6.18,0,0,1,1.65,1.17,3.75,3.75,0,0,1,1,1.67,4.85,4.85,0,0,1,.34,2A5.29,5.29,0,0,1,59.51,23a4.94,4.94,0,0,1-1.13,1.67,4,4,0,0,1-1.74,1.08,5.9,5.9,0,0,1-2.17.33H50.4Zm6.94-5.25a3.15,3.15,0,0,0-.26-1.25,2.66,2.66,0,0,0-.52-1,2.71,2.71,0,0,0-1-.59,2.63,2.63,0,0,0-1.21-.25H52.83V24h1.56a2.62,2.62,0,0,0,1.21-.17,2.37,2.37,0,0,0,1.48-1.66A3.18,3.18,0,0,0,57.34,20.92Z"/><polygon id="rect5299" class="cls-6" points="32.09 9.25 47.71 9.25 47.71 32.25 32.09 32.25 32.09 9.25"/><polygon id="rect5301" class="cls-7" points="32.87 9.25 18.03 9.25 18.03 32.25 32.78 32.25 32.78 9.25 32.87 9.25"/><path id="path5475" class="cls-5" d="M33.82,20.42a5,5,0,0,1,.35-1.92,7.07,7.07,0,0,1,1-1.67A5.16,5.16,0,0,1,37,15.67a4.71,4.71,0,0,1,2.25-.42,5.63,5.63,0,0,1,2.69.58,4.41,4.41,0,0,1,1.65,1.67l-1.91,1.33a2.21,2.21,0,0,0-.43-.66l-.61-.5-.69-.17h-.7a2.93,2.93,0,0,0-1.3.25,3.44,3.44,0,0,0-.86.75,2.84,2.84,0,0,0-.53,1,5.69,5.69,0,0,0-.17,1.17,5.7,5.7,0,0,0,.17,1.16,3.94,3.94,0,0,0,.61,1c.26.25.52.59.87.67a2.79,2.79,0,0,0,1.21.25h.7l.69-.25c.18-.17.44-.25.61-.5a4.25,4.25,0,0,0,.43-.67l2,1.17a2.86,2.86,0,0,1-.69,1.08l-1.13.75-1.3.42a4.08,4.08,0,0,1-1.39.17A6.16,6.16,0,0,1,37,25.5a6.37,6.37,0,0,1-1.74-1.25,6,6,0,0,1-1-1.75A5.91,5.91,0,0,1,33.82,20.42Z"/><path id="path5472" class="cls-5" d="M30.7,23.08a1.6,1.6,0,0,1-.35,1.17,1.79,1.79,0,0,1-.78.83,2.7,2.7,0,0,1-1.12.5L27,25.75H21.76V15.33h6a1.87,1.87,0,0,1,1,.25,1.91,1.91,0,0,1,.78.59,4,4,0,0,1,.52.83,1.92,1.92,0,0,1,.18,1,2.65,2.65,0,0,1-.35,1.42,3,3,0,0,1-1.21,1,2.62,2.62,0,0,1,1.47.91A3,3,0,0,1,30.7,23.08Zm-2.51-.41a1.27,1.27,0,0,0-.35-.84.89.89,0,0,0-.7-.41H24.28v2.33h2.78a1.07,1.07,0,0,0,.78-.33A1.28,1.28,0,0,0,28.19,22.67Zm-3.91-5.25v2.16h2.43a1,1,0,0,0,.69-.25,1,1,0,0,0,.35-.83,1.3,1.3,0,0,0-.26-.83,1.08,1.08,0,0,0-.69-.25Z"/><path id="path5469" class="cls-5" d="M8.66,15.33h2.26l4,10.42h-2.6l-.78-2.33H8.14l-.87,2.41H4.67C4.67,25.75,8.66,15.33,8.66,15.33Zm2.43,6.5-1.3-3.75-1.3,3.75Z"/><path id="rect5315" class="cls-3" d="M68.1,9.25h3.64a5.36,5.36,0,0,1,5.55,5.17.43.43,0,0,1,0,.16V26.92a5.44,5.44,0,0,1-5.55,5.33H68.1a5.45,5.45,0,0,1-5.56-5.33h0V14.58a5.36,5.36,0,0,1,5.38-5.33Z"/><path id="rect5317" class="cls-8" d="M54.3,6.25H56a7.83,7.83,0,0,1,8,7.67v13.5a7.82,7.82,0,0,1-8,7.66H54.3a7.82,7.82,0,0,1-8-7.66h0V13.92a7.83,7.83,0,0,1,8-7.67Z"/><polygon id="path5464" class="cls-5" points="74.78 23.67 74.78 25.83 67.14 25.83 67.14 15.33 74.6 15.33 74.6 17.5 69.66 17.5 69.66 19.5 73.91 19.5 73.91 21.5 69.66 21.5 69.66 23.67 74.78 23.67 74.78 23.67"/><path id="rect5323" class="cls-4" d="M54.3,6.25H56a7.83,7.83,0,0,1,8,7.67v13.5a7.82,7.82,0,0,1-8,7.66H54.3a7.82,7.82,0,0,1-8-7.66h0V13.92a7.83,7.83,0,0,1,8-7.67Z"/><path id="path5460" class="cls-1" d="M49.36,27.83V14.08H54.3a6.52,6.52,0,0,1,2.86.59,5.64,5.64,0,0,1,3.21,3.58,6.94,6.94,0,0,1,.44,2.67,10.32,10.32,0,0,1-.44,2.91A6.78,6.78,0,0,1,59.07,26a6.79,6.79,0,0,1-4.77,1.83Zm8.41-6.91a4.53,4.53,0,0,0-.26-1.59A2.84,2.84,0,0,0,56.9,18a2.64,2.64,0,0,0-1.12-.83,4.15,4.15,0,0,0-1.48-.25H52.48V25H54.3a3.91,3.91,0,0,0,1.48-.25,3.26,3.26,0,0,0,1.73-2.17A4.69,4.69,0,0,0,57.77,20.92Z"/></g></g></svg>