<?xml version="1.0" encoding="utf-8"?>
<!-- Generator: Adobe Illustrator 27.4.0, SVG Export Plug-In . SVG Version: 6.00 Build 0)  -->
<svg version="1.1" id="Layer_1" xmlns="http://www.w3.org/2000/svg" xmlns:xlink="http://www.w3.org/1999/xlink" x="0px" y="0px"
	 viewBox="0 0 80 40" style="enable-background:new 0 0 80 40;" xml:space="preserve">
<style type="text/css">
	.st0{fill:#656364;}
	.st1{fill:#868785;}
	.st2{fill:#A7A7A6;}
	.st3{fill:#CCCCCC;}
</style>
<path class="st0" d="M72.4,31.5h-8.9V8.4h8.9c3.3,0,6,2.6,6,5.7v11.7C78.4,28.9,75.7,31.5,72.4,31.5"/>
<path class="st1" d="M33.6,31.5H18.7V8.4h14.9L33.6,31.5z"/>
<path class="st2" d="M48.5,31.5H33.6V8.4h14.9V31.5z"/>
<path class="st1" d="M63.5,31.5H48.5V8.4h14.9L63.5,31.5z"/>
<path class="st0" d="M9.8,31.5h8.9V8.4H9.8c-3.3,0-6,2.6-6,5.7v11.7C3.8,28.9,6.4,31.5,9.8,31.5"/>
<path class="st3" d="M67.5,25.1V14.8h6.9v1.6h-4.8V19H73v1.6h-3.4v3h4.9v1.6L67.5,25.1z M22.4,25.1V14.8h3c3.1,0,4.2,1.2,4.2,2.8
	c0,0.9-0.5,1.7-1.2,2.2c1.2,0.5,1.8,1.3,1.8,2.3c0,1.8-1.3,3.1-4.4,3.1L22.4,25.1z M24.5,19.2l1,0c1.3,0,2-0.6,2-1.4
	c0-0.9-0.7-1.4-2.3-1.4h-0.6V19.2z M25.5,20.6h-1v2.9h1.2c1.6,0,2.4-0.4,2.4-1.5C28,21.2,27.4,20.6,25.5,20.6"/>
<path class="st3" d="M36.2,19.9c0-3.2,2.2-5.3,5.1-5.3c2.5,0,3.7,1.1,4.3,2.5l-2,0.7c-0.4-0.9-1.3-1.5-2.4-1.5
	c-1.8,0-2.9,1.4-2.9,3.5c0,2.3,1.1,3.6,3.1,3.6c1.2,0,2.1-0.6,2.7-1.5l1.6,1.1c-0.9,1.4-2.3,2.2-4.3,2.2
	C38.2,25.2,36.2,23.2,36.2,19.9"/>
<path class="st3" d="M52,25.1V14.8h3.3c3.8,0,6,1.9,6,5.1c0,3-2.4,5.1-6.2,5.1L52,25.1z M55,23.5c2.8,0,4.1-1.5,4.1-3.6
	c0-2.3-1.3-3.6-3.9-3.6h-1.2v7.2H55z M6.2,25.1l4.5-10.3h1.5l4.5,10.3h-2.3l-0.8-2H9.1l-0.8,2H6.2z M9.7,21.6H13l-1.6-4.1L9.7,21.6z
	"/>
</svg>
