<svg id="Layer_1" data-name="Layer 1" xmlns="http://www.w3.org/2000/svg" viewBox="0 0 80 40"><defs><style>.cls-1,.cls-5{fill:#fff;}.cls-2{fill:#038141;}.cls-3{fill:#e63e11;}.cls-4{fill:#ee8100;}.cls-5{fill-opacity:0.45;}.cls-6{fill:#fecb02;}.cls-7{fill:#85bb2f;}.cls-8{fill:#0039ff;fill-opacity:0.63;stroke:#fff;stroke-linecap:round;stroke-linejoin:round;stroke-width:3.5px;}</style></defs><title>NUTRISCORE-B</title><g id="_02_Picto_05_Badge_NUTRISCORE_B" data-name=" 02 Picto 05 Badge NUTRISCORE B"><g id="Group"><path id="rect5161" class="cls-1" d="M7.37,0H72.54A7.32,7.32,0,0,1,80,7.17V32.75A7.32,7.32,0,0,1,72.62,40H7.37A7.23,7.23,0,0,1,0,32.92V7.25A7.31,7.31,0,0,1,7.37,0Z"/><polygon id="rect5163" class="cls-2" points="11.89 8.42 26.64 8.42 26.64 31.42 11.89 31.42 11.89 8.42"/><polygon id="rect5165" class="cls-3" points="55.01 8.42 69.85 8.42 69.85 31.42 55.01 31.42 55.01 8.42"/><path id="rect5167" class="cls-2" d="M8.85,8.42h3.73a5.44,5.44,0,0,1,5.55,5.33V26.08a5.44,5.44,0,0,1-5.55,5.34H8.85A5.44,5.44,0,0,1,3.3,26.08V13.75A5.44,5.44,0,0,1,8.85,8.42Z"/><polygon id="rect5169" class="cls-4" points="47.81 8.42 62.64 8.42 62.64 31.42 47.81 31.42 47.81 8.42"/><path id="path5600" class="cls-5" d="M50.5,25V14.58h4.07a5.39,5.39,0,0,1,2.35.42,4.35,4.35,0,0,1,1.65,1.08,5.92,5.92,0,0,1,1,1.67,4.9,4.9,0,0,1,.34,2,4.54,4.54,0,0,1-.43,2.17,6.52,6.52,0,0,1-1,1.66,4.8,4.8,0,0,1-1.74,1,6.16,6.16,0,0,1-2.17.42Zm6.85-5.25a3.13,3.13,0,0,0-.17-1.25,2.12,2.12,0,0,0-.52-.92,2.47,2.47,0,0,0-1-.66,2.51,2.51,0,0,0-1.21-.25H52.93v6.25h1.56a2.63,2.63,0,0,0,1.21-.25l1-.67a2.82,2.82,0,0,0,.52-1A2.81,2.81,0,0,0,57.35,19.75Z"/><polygon id="rect5175" class="cls-6" points="32.19 8.42 47.81 8.42 47.81 31.42 32.19 31.42 32.19 8.42"/><polygon id="rect5177" class="cls-7" points="32.88 8.42 18.05 8.42 18.05 31.42 32.88 31.42 32.88 8.42 32.88 8.42"/><path id="path5595" class="cls-5" d="M36.44,19.58a6.74,6.74,0,0,1,.35-1.83,4.38,4.38,0,0,1,1.13-1.67,3.91,3.91,0,0,1,1.64-1.16,5.6,5.6,0,0,1,4.95.16,4.73,4.73,0,0,1,1.74,1.67l-2,1.25a1.83,1.83,0,0,0-.43-.67,1.69,1.69,0,0,0-.61-.41c-.17-.17-.44-.17-.7-.25h-.69a2.8,2.8,0,0,0-1.21.33,1.88,1.88,0,0,0-.87.75,3.35,3.35,0,0,0-.61.92A5.62,5.62,0,0,0,39,19.83,2.59,2.59,0,0,0,39.22,21a2.82,2.82,0,0,0,.52,1,2.69,2.69,0,0,0,.95.75,2.46,2.46,0,0,0,1.13.25h.69c.26-.08.53-.08.7-.25a1.59,1.59,0,0,0,.61-.42,2.88,2.88,0,0,0,.43-.66l2.08,1.16a2.72,2.72,0,0,1-.78,1,2.89,2.89,0,0,1-1,.75l-1.3.5-1.39.17a5,5,0,0,1-2.26-.5,4.45,4.45,0,0,1-1.64-1.17,5.89,5.89,0,0,1-1.13-1.91A9.23,9.23,0,0,1,36.44,19.58Z"/><path id="path5592" class="cls-5" d="M30.8,22.67a1.59,1.59,0,0,1-.35,1.16,1.86,1.86,0,0,1-.78.84,2.76,2.76,0,0,1-1.21.5l-1.39.16H21.78V14.92h6.07a2.08,2.08,0,0,1,1,.25,2.38,2.38,0,0,1,.78.58l.52.83a4.29,4.29,0,0,1,.18,1A2.61,2.61,0,0,1,30,19a2.57,2.57,0,0,1-1.21.92,3,3,0,0,1,1.47,1A2.8,2.8,0,0,1,30.8,22.67Zm-2.6-.5a1.49,1.49,0,0,0-.26-.84,1.07,1.07,0,0,0-.7-.33H24.29v2.25h2.78a1.5,1.5,0,0,0,.87-.25A1.46,1.46,0,0,0,28.2,22.17ZM24.29,17v2.17h2.52a1.64,1.64,0,0,0,.69-.25,1.4,1.4,0,0,0,.35-.84.91.91,0,0,0-.35-.83.75.75,0,0,0-.6-.25Z"/><path id="rect5187" class="cls-8" d="M24.81,5.42h1.57a7.92,7.92,0,0,1,8.07,7.75h0V26.58a7.92,7.92,0,0,1-8.07,7.75H24.81a7.83,7.83,0,0,1-8-7.66V13.17A7.9,7.9,0,0,1,24.81,5.42Z"/><path id="path5588" class="cls-5" d="M8.76,14.58H11L15,25h-2.6l-.87-2.33H8.16L7.37,25H4.77ZM11.19,21l-1.3-3.67L8.59,21Z"/><path id="rect5193" class="cls-3" d="M68.2,8.42h3.64a5.44,5.44,0,0,1,5.55,5.33h0V26.08a5.44,5.44,0,0,1-5.55,5.34H68.2a5.45,5.45,0,0,1-5.56-5.34h0V13.75A5.35,5.35,0,0,1,68,8.42Z"/><path id="path5584" class="cls-5" d="M73.06,22.92V25H65.42V14.58h7.46v2.09h-5v2.08h4.34v1.92H67.85v2.25Z"/><path id="rect5199" class="cls-7" d="M24.81,5.42h1.57a7.92,7.92,0,0,1,8.07,7.75h0V26.58a7.92,7.92,0,0,1-8.07,7.75H24.81a7.83,7.83,0,0,1-8-7.66V13.17A7.9,7.9,0,0,1,24.81,5.42Z"/><path id="path5580" class="cls-1" d="M31.58,23.5a4.76,4.76,0,0,1-.34,1.58,6.64,6.64,0,0,1-1,1.09,4.74,4.74,0,0,1-1.47.66,5.72,5.72,0,0,1-1.74.25H20.65V13.25H28a3,3,0,0,1,1.22.33,4.51,4.51,0,0,1,1,.84,4.77,4.77,0,0,1,.61,1.16A4.83,4.83,0,0,1,31,16.83a4.21,4.21,0,0,1-.43,1.84A3.22,3.22,0,0,1,29.07,20a3.17,3.17,0,0,1,1.82,1.25A3.72,3.72,0,0,1,31.58,23.5Zm-3.12-.58a2,2,0,0,0-.35-1.09,1,1,0,0,0-.87-.5H23.77v3h3.3a1.16,1.16,0,0,0,1-.41A1.73,1.73,0,0,0,28.46,22.92ZM23.77,16v2.83h2.95a1.11,1.11,0,0,0,.87-.33A1.36,1.36,0,0,0,28,17.42a1.55,1.55,0,0,0-.43-1.09.89.89,0,0,0-.78-.33Z"/></g></g></svg>